# xmcd
#
# Track frame offsets:
#	150
#	13817
#	23780
#	35870
#	49410
#	61782
#	75097
#	86947
#	98990
#	113154
#	130629
#	148992
#	159737
#	168547
#
# Disc length: 2443 seconds
#
# Revision: 1
# Processed by: cddbd v1.4PL0 Copyright (c) Steve Scherf et al.
# Submitted via: audiograbber 1.80
#
DISCID=bd09890e
DTITLE=Lynn Anderson - Rose Garden
DYEAR=1900
DGENRE=
TTITLE0=Rose Garden
TTITLE1=What A Man,My Man Is
TTITLE2=How Can I Unlove You
TTITLE3=Keep In Mind
TTITLE4=Listen To A Country Song
TTITLE5=Top Of The World
TTITLE6=You're My Man
TTITLE7=You Don't Have To Say You Love Me
TTITLE8=Cry
TTITLE9=Close To You
TTITLE10=Midnight Train To Georgia
TTITLE11=Silver Threads And Golden Needles
TTITLE12=Ride,Ride,Ride
TTITLE13=We've Only Just Begun
EXTD=
EXTT0=
EXTT1=
EXTT2=
EXTT3=
EXTT4=
EXTT5=
EXTT6=
EXTT7=
EXTT8=
EXTT9=
EXTT10=
EXTT11=
EXTT12=
EXTT13=
PLAYORDER=
